<?xml version="1.0" encoding="UTF-8"?>
<!DOCTYPE svg PUBLIC "-//W3C//DTD SVG 1.1//EN" "http://www.w3.org/Graphics/SVG/1.1/DTD/svg11.dtd">
<!-- Creator: CorelDRAW -->
<svg xmlns="http://www.w3.org/2000/svg" xml:space="preserve" width="6.82666in" height="6.82666in" style="shape-rendering:geometricPrecision; text-rendering:geometricPrecision; image-rendering:optimizeQuality; fill-rule:evenodd; clip-rule:evenodd"
viewBox="0 0 6.82666 6.82666"
 xmlns:xlink="http://www.w3.org/1999/xlink">
 <defs>
  <style type="text/css">
   <![CDATA[
    .fil0 {fill:#EF5350}
    .fil2 {fill:#FFFFFE}
    .fil1 {fill:#FFFFFE;fill-rule:nonzero}
   ]]>
  </style>
 </defs>
 <g id="Layer_x0020_1">
  <metadata id="CorelCorpID_0Corel-Layer"/>
  <rect class="fil0" width="6.82666" height="6.82666"/>
  <path class="fil1" d="M1.04344 3.10135l2.14306 0 0.106669 0 0 0.106669 0 0.641087 0 0.106669 -0.106669 0 -2.14306 0 -0.106669 0 0 -0.106669 0 -0.641087 0 -0.106669 0.106669 0zm2.03639 0.213339l-1.92972 0 0 0.427748 1.92972 0 0 -0.427748z"/>
  <path class="fil1" d="M1.04344 4.01719l2.14306 0 0.106669 0 0 0.106669 0 0.641087 0 0.106669 -0.106669 0 -2.14306 0 -0.106669 0 0 -0.106669 0 -0.641087 0 -0.106669 0.106669 0zm2.03639 0.213339l-1.92972 0 0 0.427748 1.92972 0 0 -0.427748z"/>
  <path class="fil1" d="M1.04344 4.93303l2.14306 0 0.106669 0 0 0.106669 0 0.641087 0 0.106669 -0.106669 0 -2.14306 0 -0.106669 0 0 -0.106669 0 -0.641087 0 -0.106669 0.106669 0zm2.03639 0.213339l-1.92972 0 0 0.427748 1.92972 0 0 -0.427748z"/>
  <circle class="fil2" cx="1.32996" cy="3.49779" r="0.0767937"/>
  <circle class="fil2" cx="1.65779" cy="3.49779" r="0.0767937"/>
  <circle class="fil2" cx="1.98563" cy="3.49779" r="0.0767937"/>
  <circle class="fil2" cx="1.32996" cy="4.4444" r="0.0767937"/>
  <circle class="fil2" cx="1.65779" cy="4.4444" r="0.0767937"/>
  <circle class="fil2" cx="1.98563" cy="4.4444" r="0.0767937"/>
  <circle class="fil2" cx="1.32996" cy="5.36024" r="0.0767937"/>
  <circle class="fil2" cx="1.65779" cy="5.36024" r="0.0767937"/>
  <circle class="fil2" cx="1.98563" cy="5.36024" r="0.0767937"/>
  <path class="fil1" d="M1.05431 1.08343l2.02483 0c0.045315,0 0.0857087,0.0199488 0.114287,0.052063 0.0256102,0.0288031 0.0415236,0.0677402 0.0415236,0.109846l0 1.24479c0,0.0420984 -0.0159094,0.0810433 -0.0415276,0.109843 -0.0285748,0.0321102 -0.0689843,0.0520669 -0.114283,0.0520669l-2.02483 0c-0.0452992,0 -0.0857165,-0.0199449 -0.114291,-0.0520669 -0.0256102,-0.0287953 -0.0415236,-0.0677283 -0.0415236,-0.109843l0 -1.24479c0,-0.042122 0.0159016,-0.0810591 0.0415236,-0.10985 0.0285709,-0.032122 0.0689764,-0.0520591 0.114291,-0.0520591zm1.96731 0.213339l-1.90978 0 0 1.14193 1.90978 0 0 -1.14193z"/>
  <polygon class="fil1" points="2.17339,2.54537 2.17339,2.89891 1.96006,2.89891 1.96006,2.54537 "/>
  <polygon class="fil1" points="1.86049,2.79224 2.27296,2.79224 2.27296,3.00558 1.86049,3.00558 "/>
  <path class="fil1" d="M3.81366 3.76225l2.02483 0c0.045315,0 0.0857205,0.0199488 0.114287,0.052063 0.025622,0.0287913 0.0415276,0.0677362 0.0415276,0.109843l0 1.2448c0,0.0421024 -0.0159134,0.0810472 -0.0415276,0.109843 -0.0285709,0.0321063 -0.0689724,0.0520669 -0.114287,0.0520669l-2.02483 0c-0.0452953,0 -0.0857126,-0.0199409 -0.114291,-0.0520669 -0.0256102,-0.0287913 -0.0415236,-0.0677244 -0.0415236,-0.109843l0 -1.2448c0,-0.0421102 0.0159016,-0.0810512 0.0415236,-0.109846 0.0285748,-0.032122 0.0689803,-0.0520591 0.114291,-0.0520591zm1.96731 0.213339l-1.90978 0 0 1.14193 1.90978 0 0 -1.14193z"/>
  <polygon class="fil1" points="4.93275,5.22419 4.93275,5.57774 4.71941,5.57774 4.71941,5.22419 "/>
  <polygon class="fil1" points="4.61984,5.47107 5.03231,5.47107 5.03231,5.68441 4.61984,5.68441 "/>
  <path class="fil1" d="M3.83785 1.28948l2.02483 0c0.045315,0 0.0857205,0.0199488 0.114287,0.052063 0.0256142,0.0287953 0.0415276,0.0677362 0.0415276,0.109846l0 1.2448c0,0.0421102 -0.0159055,0.0810551 -0.0415315,0.109839 -0.0285709,0.0321181 -0.0689646,0.0520709 -0.114283,0.0520709l-2.02483 0c-0.0452953,0 -0.0857126,-0.0199409 -0.114291,-0.0520669 -0.0256102,-0.0287953 -0.0415236,-0.0677283 -0.0415236,-0.109843l0 -1.2448c0,-0.042126 0.0159016,-0.0810551 0.0415236,-0.109846 0.0285669,-0.0321299 0.0689724,-0.052063 0.114291,-0.052063zm1.96731 0.213339l-1.90979 0 0 1.14194 1.90979 0 0 -1.14194z"/>
  <polygon class="fil1" points="4.95694,2.75143 4.95694,3.10498 4.7436,3.10498 4.7436,2.75143 "/>
  <polygon class="fil1" points="4.64403,2.99831 5.0565,2.99831 5.0565,3.21165 4.64403,3.21165 "/>
  <polygon class="fil1" points="4.9036,3.10498 4.9036,3.86892 4.79693,3.86892 4.79693,3.10498 "/>
  <polygon class="fil1" points="3.13592,2.02133 3.7887,2.02133 3.7887,2.128 3.13592,2.128 "/>
 </g>
</svg>
